<svg width="18" height="18" viewBox="0 0 18 18" fill="none" xmlns="http://www.w3.org/2000/svg">
<path d="M2.17502 1.72501L16.2788 6.42601C16.3518 6.4502 16.4156 6.49626 16.4615 6.55793C16.5075 6.6196 16.5333 6.69391 16.5356 6.77078C16.5379 6.84766 16.5165 6.92337 16.4743 6.98768C16.4321 7.05198 16.3712 7.10175 16.2998 7.13026L9.75002 9.75001L6.43127 16.3875C6.39749 16.4551 6.34409 16.5109 6.27806 16.5476C6.21203 16.5843 6.13644 16.6003 6.06121 16.5933C5.98597 16.5863 5.9146 16.5568 5.85644 16.5086C5.79828 16.4603 5.75604 16.3956 5.73527 16.323L1.69502 2.18326C1.6763 2.11757 1.67588 2.04801 1.6938 1.9821C1.71173 1.91619 1.74731 1.85643 1.79672 1.80927C1.84612 1.7621 1.90747 1.72932 1.97414 1.71448C2.04081 1.69963 2.11026 1.70327 2.17502 1.72501Z" fill="white"/>
</svg>
