<svg width="78" height="78" viewBox="0 0 78 78" fill="none" xmlns="http://www.w3.org/2000/svg">
<path d="M78 18.2895C78 35.3584 78 52.4069 78 69.4757C77.9593 69.6181 77.8779 69.7606 77.8576 69.903C77.0436 73.8701 74.683 76.4335 70.8573 77.6541C70.4096 77.7966 69.9416 77.8983 69.4735 78C49.1646 78 28.8557 78 8.54683 78C8.46543 77.9593 8.36368 77.8983 8.28228 77.8779C3.23559 76.9217 0 73.0563 0 67.9703C0 51.8983 0 35.8263 0 19.7746C0 18.9609 0.0610488 18.1471 0.244195 17.3537C1.26167 12.8576 5.14845 9.7856 9.74746 9.74491C10.8056 9.74491 11.8638 9.74491 12.9627 9.74491C12.9627 9.35837 12.9627 9.0939 12.9627 8.80908C12.9627 7.05947 12.9627 5.30986 12.9627 3.56025C13.0034 1.34272 14.3261 0.0203443 16.5442 0C17.46 0 18.3757 0 19.2914 0C21.3874 0.0203443 22.7305 1.32238 22.7508 3.41784C22.7712 5.24883 22.7508 7.07981 22.7508 8.9108C22.7508 9.17527 22.7508 9.43975 22.7508 9.72457C33.6379 9.72457 44.4232 9.72457 55.2695 9.72457C55.2695 9.39906 55.2695 9.13458 55.2695 8.87011C55.2695 7.05947 55.2492 5.26917 55.2695 3.45853C55.2899 1.36307 56.6126 0.0406886 58.7086 0.0203443C59.6447 0.0203443 60.5807 0.0203443 61.5168 0.0203443C63.6332 0.0406886 64.9966 1.36307 65.017 3.49922C65.0373 5.16745 65.017 6.85603 65.017 8.52426C65.017 8.93114 65.017 9.31768 65.017 9.7856C66.1972 9.7856 67.2961 9.76526 68.3746 9.7856C72.7091 9.82629 76.5552 12.8169 77.6744 17.0078C77.7762 17.4147 77.8779 17.8419 78 18.2895ZM6.51187 32.6526C6.51187 32.9577 6.51187 33.2222 6.51187 33.507C6.51187 44.9405 6.51187 56.3537 6.51187 67.7872C6.51187 70.2488 7.7532 71.4898 10.2155 71.4898C29.4052 71.4898 48.5948 71.4898 67.7845 71.4898C70.2265 71.4898 71.4678 70.2488 71.4881 67.7872C71.4881 56.3537 71.4881 44.9405 71.4881 33.507C71.4881 33.2426 71.4881 32.9577 71.4881 32.6526C49.7955 32.6526 28.2045 32.6526 6.51187 32.6526Z" fill="white"/>
<path fill-rule="evenodd" clip-rule="evenodd" d="M52.9862 41.2545C54.4573 42.7313 54.4527 45.1209 52.976 46.592L39.403 60.1129C37.603 61.9061 34.692 61.906 32.892 60.1129L26.1548 53.3947C24.6795 51.9235 24.6755 49.5351 26.1459 48.059C27.6176 46.5816 30.0085 46.5778 31.4848 48.0505L36.1475 52.7014L47.6487 41.2443C49.1254 39.7732 51.5151 39.7778 52.9862 41.2545Z" fill="white"/>
</svg>
