<svg width="82" height="82" viewBox="0 0 82 82" fill="none" xmlns="http://www.w3.org/2000/svg">
<g opacity="0.5" clip-path="url(#clip0_1391_3074)">
<path d="M61.6498 82C60.7724 80.4807 59.9165 78.94 59.0177 77.4421C58.8679 77.1853 58.5256 77.0141 58.226 76.9285C56.7281 76.4791 55.2088 76.0726 53.6894 75.6874C53.3471 75.6018 52.8977 75.6232 52.6195 75.773C51.0574 76.6503 49.5381 77.5919 48.0616 78.4692C46.0287 76.4363 44.06 74.4248 41.9843 72.3492C42.8403 70.9368 43.739 69.3961 44.6806 67.8982C44.9588 67.4702 44.916 67.1279 44.7662 66.6571C44.2954 65.2234 43.9744 63.7255 43.5464 62.2917C43.4394 61.9494 43.2255 61.5642 42.9259 61.393C41.5778 60.5798 40.1868 59.8309 38.8173 59.0819C38.4107 58.868 38.2609 58.654 38.4107 58.1618C39.0741 55.8293 39.6947 53.4755 40.2938 51.143C40.4222 50.6294 40.6576 50.4796 41.1712 50.501C42.7547 50.5652 44.3168 50.608 45.9003 50.5866C46.2427 50.5866 46.6279 50.3726 46.8846 50.1159C47.9974 49.0459 49.0887 47.9546 50.1587 46.8418C50.394 46.5851 50.608 46.1999 50.608 45.8575C50.6294 44.2526 50.5652 42.6477 50.5224 41.0642C50.501 40.6148 50.6294 40.4008 51.1002 40.2938C53.4969 39.6733 55.8935 39.0313 58.2688 38.3679C58.6968 38.2396 58.8893 38.3679 59.0819 38.7317C59.8523 40.144 60.6012 41.5564 61.4144 42.9259C61.5856 43.2041 61.9708 43.4394 62.3131 43.5464C63.7897 43.9958 65.2662 44.4024 66.7641 44.7662C67.1065 44.8518 67.5558 44.8518 67.834 44.702C69.3961 43.8246 70.9154 42.8831 72.3919 42.0057C74.4248 44.06 76.4149 46.0715 78.4692 48.1472C77.6132 49.5809 76.6717 51.1002 75.7944 52.6409C75.6232 52.9191 75.6232 53.3685 75.7088 53.7108C76.0939 55.2302 76.5005 56.7495 76.9499 58.2474C77.0355 58.547 77.2281 58.8893 77.4849 59.0391C78.9828 59.9593 80.5235 60.8152 82.0428 61.6926C82.0428 61.7996 82.0428 61.9066 82.0428 62.0136C81.9786 62.1634 81.893 62.2917 81.8716 62.4415C81.251 64.7526 80.6091 67.0637 80.0099 69.3747C79.8815 69.8669 79.6889 70.0167 79.1968 69.9953C77.656 69.9311 76.0939 69.8883 74.5532 69.9097C74.275 69.9097 73.9113 70.1023 73.6973 70.3163C72.5417 71.429 71.429 72.5418 70.3163 73.6973C70.1023 73.9113 69.9097 74.2537 69.9097 74.5532C69.8883 75.9228 69.9525 77.2709 69.9739 78.6404C69.9953 79.8601 69.9953 79.8387 68.8398 80.1597C66.5715 80.7803 64.2818 81.4222 62.0136 82.0642C61.8638 82 61.7568 82 61.6498 82ZM60.1947 67.4061C64.1534 67.4061 67.3846 64.1962 67.4274 60.2589C67.4488 56.2787 64.2176 53.0047 60.2375 53.0047C56.2787 53.0047 53.0475 56.2145 53.0047 60.1519C52.9833 64.132 56.2145 67.4061 60.1947 67.4061Z" fill="#16263F"/>
<path d="M0 30.8355C0 27.9467 0 25.1435 0 22.276C1.6477 21.8695 3.29541 21.4629 4.94311 21.0777C5.49948 20.9493 5.75626 20.6925 5.94885 20.1362C6.37683 18.8736 6.9118 17.6539 7.46816 16.4556C7.70355 15.9634 7.70355 15.621 7.40397 15.1503C6.63361 13.9305 5.92745 12.668 5.1571 11.4483C4.92171 11.0631 4.85752 10.8063 5.24269 10.4211C6.99739 8.70924 8.73069 6.97594 10.464 5.22124C10.8064 4.87886 11.0418 4.87886 11.4269 5.11425C12.7109 5.9274 14.0162 6.71916 15.3429 7.44671C15.5997 7.5965 16.0491 7.57511 16.3272 7.46811C17.6754 6.95454 19.0021 6.41957 20.3074 5.82041C20.5856 5.69202 20.9066 5.39243 20.9922 5.09285C21.4629 3.40235 21.8481 1.69045 22.2761 -0.0428467C25.1221 -0.0428467 27.9468 -0.0428467 30.8356 -0.0428467C31.2422 1.60486 31.6487 3.25256 32.0125 4.90026C32.1409 5.45663 32.3977 5.71341 32.9541 5.906C34.2166 6.33398 35.4363 6.86895 36.6347 7.44671C37.1268 7.6821 37.4692 7.6821 37.94 7.38252C39.1597 6.61216 40.4222 5.906 41.642 5.13565C42.0271 4.90026 42.2839 4.83607 42.6477 5.22124C44.3596 6.97594 46.0929 8.70924 47.8476 10.4425C48.19 10.7849 48.1686 11.0203 47.9332 11.3841C47.1414 12.6466 46.3925 13.9519 45.6221 15.2145C45.3867 15.5782 45.3653 15.8778 45.5579 16.3058C46.1571 17.6111 46.6493 18.9592 47.227 20.286C47.3554 20.5641 47.655 20.8851 47.9546 20.9707C49.6023 21.4415 51.25 21.8267 52.9405 22.2546C52.9405 25.1007 52.9405 27.9253 52.9405 30.8141C51.3356 31.2207 49.7093 31.6487 48.083 32.0339C47.5908 32.1409 47.3554 32.3762 47.1842 32.8684C46.7135 34.1737 46.1785 35.4363 45.6007 36.6988C45.3867 37.1482 45.4081 37.4477 45.6435 37.8543C46.4353 39.1168 47.1842 40.4222 47.976 41.6847C48.2328 42.0699 48.19 42.3053 47.8476 42.6262C46.0929 44.3381 44.3596 46.0714 42.6477 47.8475C42.3053 48.1899 42.0699 48.1899 41.7062 47.9545C40.4436 47.1628 39.1383 46.4352 37.8758 45.6221C37.4478 45.3653 37.1482 45.4081 36.7203 45.6007C35.4577 46.1784 34.1952 46.7134 32.8899 47.1842C32.3977 47.3554 32.1837 47.6121 32.0553 48.1043C31.6701 49.7092 31.2636 51.3141 30.857 52.9404C28.011 52.9404 25.1863 52.9404 22.2761 52.9404C21.8909 51.3569 21.4629 49.7734 21.0992 48.1685C20.9708 47.6335 20.7354 47.3554 20.1576 47.1628C18.8737 46.7134 17.6326 46.1784 16.3914 45.6007C15.9421 45.3867 15.6425 45.3867 15.2359 45.6435C13.9734 46.4352 12.6681 47.1842 11.4055 47.9759C11.0204 48.2113 10.785 48.1899 10.464 47.8475C8.75209 46.0928 7.01879 44.3595 5.26409 42.6476C4.92171 42.3267 4.92171 42.0913 5.1571 41.7061C5.97025 40.4222 6.762 39.1169 7.48956 37.7901C7.63935 37.5333 7.61795 37.084 7.51096 36.8058C6.99739 35.4577 6.39823 34.1523 5.90605 32.8042C5.73486 32.3762 5.52088 32.1623 5.0929 32.0767C3.4024 31.6701 1.7333 31.2635 0 30.8355ZM38.5819 26.5986C38.6033 19.965 33.2109 14.5511 26.62 14.5511C19.9864 14.5297 14.5725 19.9008 14.5511 26.513C14.5297 33.1466 19.9222 38.5605 26.513 38.5819C33.1467 38.5819 38.5605 33.2108 38.5819 26.5986Z" fill="#16263F"/>
<path d="M60.1735 62.6127C58.8682 62.5913 57.7982 61.4999 57.7982 60.1946C57.7982 58.8679 58.9323 57.7552 60.2591 57.7979C61.5644 57.8407 62.6129 58.9535 62.5915 60.2374C62.5915 61.5427 61.4788 62.6127 60.1735 62.6127Z" fill="#16263F"/>
<path d="M33.7673 26.5345C33.7887 30.5146 30.5361 33.7672 26.5559 33.7672C22.5972 33.7672 19.366 30.536 19.366 26.5773C19.366 22.5971 22.5972 19.3445 26.5773 19.3445C30.5361 19.3659 33.7673 22.5757 33.7673 26.5345Z" fill="#16263F"/>
</g>
<defs>
<clipPath id="clip0_1391_3074">
<rect width="82" height="82" fill="white"/>
</clipPath>
</defs>
</svg>
