<svg width="77" height="11" viewBox="0 0 77 11" fill="none" xmlns="http://www.w3.org/2000/svg">
<path d="M6.73393 0.558823V2.57353H2.5197V4.75H5.673V6.70588H2.5197V10.8824H0V0.558823H6.73393Z" fill="#7B8798"/>
<path d="M11.3188 11C10.5133 11 9.78638 10.8284 9.13803 10.4853C8.49951 10.1422 7.99361 9.65196 7.62032 9.01471C7.25686 8.37745 7.07512 7.63235 7.07512 6.77941C7.07512 5.93627 7.26177 5.19608 7.63506 4.55882C8.00834 3.91176 8.51916 3.41667 9.1675 3.07353C9.81585 2.73039 10.5428 2.55882 11.3483 2.55882C12.1538 2.55882 12.8807 2.73039 13.5291 3.07353C14.1774 3.41667 14.6882 3.91176 15.0615 4.55882C15.4348 5.19608 15.6215 5.93627 15.6215 6.77941C15.6215 7.62255 15.4299 8.36765 15.0468 9.01471C14.6735 9.65196 14.1578 10.1422 13.4996 10.4853C12.8513 10.8284 12.1243 11 11.3188 11ZM11.3188 8.82353C11.8002 8.82353 12.2078 8.64706 12.5418 8.29412C12.8857 7.94118 13.0576 7.43627 13.0576 6.77941C13.0576 6.12255 12.8906 5.61765 12.5566 5.26471C12.2324 4.91176 11.8296 4.73529 11.3483 4.73529C10.8571 4.73529 10.4495 4.91176 10.1253 5.26471C9.80111 5.60784 9.63903 6.11275 9.63903 6.77941C9.63903 7.43627 9.7962 7.94118 10.1105 8.29412C10.4347 8.64706 10.8375 8.82353 11.3188 8.82353Z" fill="#7B8798"/>
<path d="M19.4779 4.04412C19.7726 3.59314 20.141 3.2402 20.583 2.98529C21.0251 2.72059 21.5163 2.58824 22.0566 2.58824V5.25H21.364C20.7353 5.25 20.2638 5.38725 19.9494 5.66176C19.6351 5.92647 19.4779 6.39706 19.4779 7.07353V10.8824H16.9582V2.67647H19.4779V4.04412Z" fill="#7B8798"/>
<path d="M31.0116 6.64706C31.0116 6.88235 30.9968 7.12745 30.9674 7.38235H25.2649C25.3042 7.89216 25.4663 8.28431 25.7511 8.55882C26.0458 8.82353 26.4044 8.95588 26.8268 8.95588C27.4555 8.95588 27.8926 8.69118 28.1382 8.16176H30.82C30.6825 8.70098 30.432 9.18627 30.0685 9.61765C29.7149 10.049 29.2679 10.3873 28.7276 10.6324C28.1873 10.8775 27.5832 11 26.9152 11C26.1097 11 25.3926 10.8284 24.7639 10.4853C24.1352 10.1422 23.644 9.65196 23.2904 9.01471C22.9367 8.37745 22.7599 7.63235 22.7599 6.77941C22.7599 5.92647 22.9318 5.18137 23.2756 4.54412C23.6293 3.90686 24.1205 3.41667 24.7492 3.07353C25.3779 2.73039 26.0999 2.55882 26.9152 2.55882C27.7109 2.55882 28.4182 2.72549 29.0371 3.05882C29.6559 3.39216 30.1373 3.86765 30.4811 4.48529C30.8347 5.10294 31.0116 5.82353 31.0116 6.64706ZM28.4329 5.98529C28.4329 5.55392 28.2856 5.21078 27.9909 4.95588C27.6962 4.70098 27.3278 4.57353 26.8857 4.57353C26.4633 4.57353 26.1048 4.69608 25.8101 4.94118C25.5252 5.18627 25.3484 5.53431 25.2796 5.98529H28.4329Z" fill="#7B8798"/>
<path d="M35.6857 11C34.9686 11 34.3301 10.8775 33.7701 10.6324C33.2102 10.3873 32.7681 10.0539 32.444 9.63235C32.1198 9.20098 31.9381 8.72059 31.8988 8.19118H34.389C34.4185 8.47549 34.5511 8.70588 34.7868 8.88235C35.0226 9.05882 35.3124 9.14706 35.6562 9.14706C35.9706 9.14706 36.2112 9.08824 36.3782 8.97059C36.5551 8.84314 36.6435 8.68137 36.6435 8.48529C36.6435 8.25 36.5207 8.07843 36.2751 7.97059C36.0295 7.85294 35.6317 7.72549 35.0816 7.58824C34.4921 7.45098 34.001 7.30882 33.608 7.16176C33.2151 7.0049 32.8762 6.76471 32.5913 6.44118C32.3064 6.10784 32.164 5.66176 32.164 5.10294C32.164 4.63235 32.2917 4.20588 32.5471 3.82353C32.8123 3.43137 33.1955 3.12255 33.6965 2.89706C34.2073 2.67157 34.8114 2.55882 35.5089 2.55882C36.5403 2.55882 37.3508 2.81373 37.9402 3.32353C38.5394 3.83333 38.8832 4.5098 38.9716 5.35294H36.6435C36.6042 5.06863 36.4765 4.84314 36.2604 4.67647C36.0541 4.5098 35.779 4.42647 35.4352 4.42647C35.1405 4.42647 34.9146 4.48529 34.7574 4.60294C34.6002 4.71078 34.5216 4.86274 34.5216 5.05882C34.5216 5.29412 34.6444 5.47059 34.89 5.58823C35.1454 5.70588 35.5383 5.82353 36.0688 5.94118C36.6779 6.09804 37.1739 6.2549 37.557 6.41176C37.9402 6.55882 38.2742 6.80392 38.559 7.14706C38.8537 7.48039 39.006 7.93137 39.0158 8.5C39.0158 8.98039 38.8783 9.41176 38.6032 9.79412C38.338 10.1667 37.95 10.4608 37.4392 10.6765C36.9382 10.8922 36.3537 11 35.6857 11Z" fill="#7B8798"/>
<path d="M45.14 8.75V10.8824H43.858C42.9444 10.8824 42.2322 10.6618 41.7214 10.2206C41.2106 9.76961 40.9552 9.03922 40.9552 8.02941V4.76471H39.9532V2.67647H40.9552V0.676471H43.4749V2.67647H45.1252V4.76471H43.4749V8.05882C43.4749 8.30392 43.5338 8.48039 43.6517 8.58823C43.7696 8.69608 43.9661 8.75 44.2411 8.75H45.14Z" fill="#7B8798"/>
<path d="M59.3465 2.85294L56.8268 10.8824H55.7953L53.5703 4.14706L51.3453 10.8824H50.2992L47.7795 2.85294H48.8256L50.8296 9.83823L53.0841 2.85294H54.1155L56.3405 9.85294L58.3298 2.85294H59.3465Z" fill="#7B8798"/>
<path d="M67.5496 6.45588C67.5496 6.80882 67.5398 7.07843 67.5202 7.26471H60.8452C60.8747 7.87255 61.022 8.39216 61.2872 8.82353C61.5525 9.2549 61.9012 9.58333 62.3334 9.80882C62.7657 10.0245 63.2372 10.1324 63.748 10.1324C64.416 10.1324 64.9759 9.97059 65.4278 9.64706C65.8895 9.32353 66.194 8.88725 66.3414 8.33824H67.4318C67.2353 9.12255 66.8129 9.76471 66.1646 10.2647C65.526 10.7549 64.7205 11 63.748 11C62.9916 11 62.3138 10.8333 61.7146 10.5C61.1153 10.1569 60.6438 9.67647 60.3 9.05882C59.966 8.43137 59.799 7.70098 59.799 6.86765C59.799 6.03431 59.966 5.30392 60.3 4.67647C60.634 4.04902 61.1006 3.56863 61.6998 3.23529C62.299 2.90196 62.9818 2.73529 63.748 2.73529C64.5142 2.73529 65.1822 2.90196 65.752 3.23529C66.3315 3.56863 66.7736 4.01961 67.0781 4.58823C67.3925 5.14706 67.5496 5.76961 67.5496 6.45588ZM66.5035 6.42647C66.5133 5.82843 66.3905 5.31863 66.1351 4.89706C65.8895 4.47549 65.5506 4.15686 65.1184 3.94118C64.6861 3.72549 64.2146 3.61765 63.7038 3.61765C62.9376 3.61765 62.2843 3.86274 61.744 4.35294C61.2037 4.84314 60.9041 5.53431 60.8452 6.42647H66.5035Z" fill="#7B8798"/>
<path d="M69.9714 4.63235C70.2366 4.07353 70.6443 3.61765 71.1944 3.26471C71.7543 2.91176 72.4125 2.73529 73.1689 2.73529C73.9056 2.73529 74.5638 2.90686 75.1434 3.25C75.723 3.58333 76.1748 4.06373 76.499 4.69118C76.833 5.30882 77 6.02941 77 6.85294C77 7.67647 76.833 8.40196 76.499 9.02941C76.1748 9.65686 75.718 10.1422 75.1286 10.4853C74.5491 10.8284 73.8958 11 73.1689 11C72.4027 11 71.7396 10.8284 71.1796 10.4853C70.6295 10.1324 70.2268 9.67647 69.9714 9.11765V10.8824H68.9546V0H69.9714V4.63235ZM75.9538 6.85294C75.9538 6.18627 75.8212 5.61275 75.556 5.13235C75.3006 4.64216 74.9469 4.26961 74.495 4.01471C74.0432 3.7598 73.5323 3.63235 72.9626 3.63235C72.4125 3.63235 71.9066 3.76471 71.4449 4.02941C70.993 4.29412 70.6344 4.67157 70.3692 5.16176C70.104 5.65196 69.9714 6.22059 69.9714 6.86765C69.9714 7.51471 70.104 8.08333 70.3692 8.57353C70.6344 9.06373 70.993 9.44118 71.4449 9.70588C71.9066 9.97059 72.4125 10.1029 72.9626 10.1029C73.5323 10.1029 74.0432 9.97549 74.495 9.72059C74.9469 9.45588 75.3006 9.07843 75.556 8.58823C75.8212 8.08823 75.9538 7.5098 75.9538 6.85294Z" fill="#7B8798"/>
</svg>
