<svg width="128" height="48" viewBox="0 0 128 48" fill="none" xmlns="http://www.w3.org/2000/svg">
<path d="M80.033 48C79.0201 47.7734 77.9846 47.6374 76.9942 47.3201C74.248 46.4816 72.8749 44.6233 72.8299 41.7452C72.7849 39.0484 72.8299 36.3289 72.8299 33.6321C72.8299 33.2242 72.8299 32.8163 72.8299 32.295C71.0967 32.295 69.476 32.295 67.7878 32.295C67.7878 30.686 67.7878 29.1903 67.7878 27.5813C69.4085 27.5813 71.0292 27.5813 72.8074 27.5813C72.8074 25.9496 72.8074 24.4312 72.8074 22.8449C74.7658 22.8449 76.589 22.8449 78.5474 22.8449C78.5474 24.3632 78.5474 25.8589 78.5474 27.4906C81.8788 27.4906 85.0752 27.4906 88.294 27.4906C91.4679 27.4906 94.6418 27.4906 97.8832 27.4906C97.8832 29.1223 97.8832 30.6407 97.8832 32.2724C91.4679 32.2724 85.0977 32.2724 78.84 32.2724C78.84 35.2638 78.7274 38.1419 78.885 40.9974C78.9525 42.3118 79.9205 42.9916 81.3386 42.9916C83.7246 42.9916 86.1106 42.833 88.4966 42.6744C90.3649 42.5384 92.2107 42.2891 94.1691 42.0851C94.1691 43.6035 94.1691 45.0766 94.1691 46.7082C92.4133 46.9122 90.6576 47.1388 88.8793 47.3201C86.5383 47.5694 84.1973 47.7734 81.8563 48C81.226 48 80.6183 48 80.033 48Z" fill="#DF3663"/>
<path d="M127.956 47.0029C126.02 47.0029 124.197 47.0029 122.284 47.0029C122.284 46.2324 122.284 45.5525 122.284 44.8953C120.258 45.5298 118.322 46.2777 116.341 46.7536C113.032 47.5468 109.678 47.7281 106.324 46.9122C103.398 46.2097 101.89 44.4874 101.665 41.7452C101.44 39.0937 102.745 37.0088 105.469 35.853C108.62 34.516 111.952 34.3347 115.283 34.6066C117.579 34.8106 119.853 35.2638 122.126 35.6038C122.261 34.6293 121.766 33.5415 120.505 33.0429C119.132 32.5217 117.647 32.1364 116.183 32.0231C112.379 31.7738 108.665 32.567 104.996 33.4735C104.501 33.5868 104.006 33.7001 103.421 33.8361C103.421 32.2271 103.421 30.7314 103.421 28.9184C106.167 28.3971 108.958 27.6946 111.794 27.3547C115.035 26.9694 118.299 26.9921 121.496 27.8986C125.525 29.0317 127.776 31.7285 127.934 35.9663C128.069 39.5923 127.956 43.2409 127.956 47.0029ZM114.45 38.0739C112.582 38.3685 110.871 38.5045 109.205 38.9124C107.81 39.2524 107.292 40.1135 107.405 41.2467C107.517 42.2891 108.238 42.8557 109.656 43.0143C113.797 43.4222 117.759 42.6517 121.608 41.156C121.923 41.0427 122.216 40.4535 122.216 40.0909C122.216 39.7963 121.788 39.3204 121.496 39.2524C119.11 38.8218 116.724 38.4365 114.45 38.0739Z" fill="#DF3663"/>
<path d="M61.0574 19.5588C59.1441 19.5588 57.3433 19.5588 55.43 19.5588C55.43 18.539 55.43 17.5419 55.43 16.2728C54.9123 16.6127 54.6196 16.794 54.327 16.998C50.0727 19.7175 45.4357 20.488 40.5511 19.5588C36.702 18.811 34.361 16.3181 34.1584 12.3522C33.9333 8.31835 34.1134 4.23914 34.1134 0.114604C36.0267 0.114604 37.8274 0.114604 39.8083 0.114604C39.8083 0.567849 39.8083 0.998433 39.8083 1.42902C39.8758 4.55641 39.7858 7.68381 40.0334 10.7659C40.236 13.2587 41.7666 14.5505 44.2427 14.8224C48.0468 15.253 51.4008 14.1426 54.4396 11.8763C55.1148 11.3778 55.43 10.7659 55.4075 9.88205C55.3399 6.95861 55.4075 4.01252 55.3625 1.08908C55.3399 0.250577 55.6101 -0.0213699 56.4429 0.00129236C57.9736 0.0692792 59.4817 0.0239546 61.0574 0.0239546C61.0574 6.59602 61.0574 13.0094 61.0574 19.5588Z" fill="#DF3663"/>
<path d="M34.0908 27.536C36.0266 27.536 37.8049 27.536 39.7858 27.536C39.7858 27.9666 39.7858 28.3971 39.7858 28.8277C39.8533 31.9325 39.7633 35.0598 40.0109 38.1646C40.2134 40.6801 41.6541 42.0172 44.1526 42.2891C48.1368 42.7197 51.7159 41.6093 54.7772 39.0031C55.1373 38.7085 55.3624 38.0513 55.3624 37.5527C55.4074 34.6519 55.3849 31.7738 55.3849 28.873C55.3849 28.4651 55.3849 28.0572 55.3849 27.5586C57.2983 27.5586 59.099 27.5586 61.0123 27.5586C61.0123 33.9947 61.0123 40.4308 61.0123 46.9575C59.1891 46.9575 57.3658 46.9575 55.43 46.9575C55.43 45.9604 55.43 44.9633 55.43 43.7168C54.8897 44.0568 54.5746 44.2607 54.2369 44.4647C50.0502 47.1162 45.4807 47.8867 40.6861 47.0029C36.6569 46.255 34.3834 43.8075 34.1358 39.683C33.9107 35.7171 34.0908 31.6832 34.0908 27.536Z" fill="#DF3663"/>
<path d="M122.306 0.114612C124.242 0.114612 126.065 0.114612 127.934 0.114612C127.934 6.59602 127.934 13.0321 127.934 19.5135C126.088 19.5135 124.264 19.5135 122.329 19.5135C122.329 18.5164 122.329 17.5192 122.329 16.2728C121.811 16.6128 121.473 16.8394 121.158 17.0433C116.949 19.7175 112.357 20.4427 107.495 19.5362C103.803 18.8563 101.417 16.5674 101.147 12.8055C100.854 8.63563 101.08 4.39778 101.08 0.114612C102.925 0.114612 104.771 0.114612 106.752 0.114612C106.752 2.78876 106.729 5.41759 106.752 8.02375C106.774 9.06621 106.797 10.1313 107 11.1511C107.427 13.3041 108.71 14.5052 110.871 14.7771C114.833 15.2983 118.344 14.1652 121.473 11.7404C122.059 11.2871 122.306 10.7885 122.306 10.018C122.284 6.77732 122.306 3.51395 122.306 0.114612Z" fill="#DF3663"/>
<path d="M0.191312 0.0919426C2.05961 0.0919426 3.88289 0.0919426 5.86374 0.0919426C5.86374 1.45168 5.84123 2.78875 5.86374 4.12583C5.88625 5.37225 5.86374 6.61868 6.06633 7.81978C6.44899 10.29 7.84459 11.6044 10.3207 11.8537C14.1473 12.2389 17.5913 11.1738 20.5625 8.74893C21.0127 8.38634 21.3504 7.63848 21.3729 7.07193C21.4629 4.78303 21.4179 2.49414 21.4179 0.114605C23.3537 0.114605 25.1995 0.114605 27.0903 0.114605C27.0903 6.59602 27.0903 13.0094 27.0903 19.4909C25.222 19.4909 23.3762 19.4909 21.4404 19.4909C21.4404 17.4739 21.4404 15.5023 21.4404 13.3494C20.9677 13.6213 20.6526 13.8026 20.3599 14.0066C16.1506 16.7261 11.5587 17.4739 6.6966 16.5901C2.77992 15.8649 0.528957 13.4853 0.191312 9.47413C-0.0562936 6.73199 0.101274 3.92187 0.101274 1.15707C0.101274 0.817136 0.146293 0.477201 0.191312 0.0919426Z" fill="#DF3663"/>
<path d="M0.0337645 27.536C2.05963 27.536 3.83789 27.536 5.84125 27.536C5.84125 27.9666 5.81874 28.3971 5.84125 28.8277C5.90878 31.0713 5.84125 33.3375 6.08886 35.5811C6.31395 37.666 7.61951 38.8445 9.6904 39.2071C13.8547 39.9322 17.5238 38.7085 20.7426 36.057C21.1028 35.7624 21.3504 35.1052 21.3729 34.6293C21.4404 32.3177 21.3954 29.9835 21.3954 27.5813C23.3087 27.5813 25.132 27.5813 27.0228 27.5813C27.0228 34.0174 27.0228 40.4761 27.0228 46.9802C25.177 46.9802 23.3763 46.9802 21.3954 46.9802C21.3954 44.9633 21.3954 42.9463 21.3954 41.156C19.167 42.0625 17.0511 43.0823 14.8451 43.7848C12.324 44.578 9.66789 44.6007 7.05677 44.1474C2.75743 43.3996 0.506467 40.9294 0.0562741 36.4649C-0.0337645 35.5811 0.0112548 34.6519 0.0112548 33.7681C0.0337645 31.7058 0.0337645 29.6889 0.0337645 27.536Z" fill="#DF3663"/>
<path d="M95.6547 19.5815C93.6964 19.5815 91.8281 19.6268 89.9598 19.5362C89.6221 19.5135 89.1944 19.0376 88.9919 18.675C86.7859 14.2559 84.6025 9.79141 82.419 5.3496C82.2615 5.03233 82.0814 4.71506 81.8338 4.26181C81.5862 4.73772 81.3836 5.07766 81.2035 5.44025C79.0201 9.88206 76.8367 14.3239 74.6982 18.7883C74.4281 19.3776 74.113 19.6268 73.4377 19.6042C71.6819 19.5589 69.9262 19.5815 68.0129 19.5815C68.2155 19.1283 68.3505 18.7883 68.5081 18.4711C71.4569 12.6469 74.4056 6.82265 77.3094 0.998446C77.6695 0.250591 78.1197 -0.0213563 78.9526 0.00130602C81.0009 0.0692929 83.0718 -0.0213563 85.1202 0.0466306C85.5029 0.0692929 86.0656 0.363902 86.2232 0.703837C89.352 6.82265 92.4133 12.9415 95.4971 19.0829C95.5647 19.1736 95.5872 19.2869 95.6547 19.5815Z" fill="#DF3663"/>
</svg>
