<svg width="251" height="94" viewBox="0 0 251 94" fill="none" xmlns="http://www.w3.org/2000/svg">
<path d="M156.94 94C154.953 93.5562 152.923 93.2899 150.981 92.6686C145.596 91.0265 142.903 87.3873 142.815 81.751C142.727 76.4698 142.815 71.1441 142.815 65.8629C142.815 65.064 142.815 64.2652 142.815 63.2444C139.416 63.2444 136.238 63.2444 132.928 63.2444C132.928 60.0934 132.928 57.1643 132.928 54.0133C136.106 54.0133 139.284 54.0133 142.771 54.0133C142.771 50.818 142.771 47.8445 142.771 44.7379C146.611 44.7379 150.186 44.7379 154.026 44.7379C154.026 47.7113 154.026 50.6404 154.026 53.8358C160.559 53.8358 166.827 53.8358 173.139 53.8358C179.363 53.8358 185.587 53.8358 191.943 53.8358C191.943 57.0312 191.943 60.0047 191.943 63.2001C179.363 63.2001 166.871 63.2001 154.6 63.2001C154.6 69.0583 154.38 74.6946 154.689 80.2865C154.821 82.8605 156.719 84.1919 159.5 84.1919C164.179 84.1919 168.858 83.8813 173.536 83.5706C177.2 83.3043 180.819 82.8162 184.66 82.4167C184.66 85.3902 184.66 88.2749 184.66 91.4703C181.217 91.8697 177.774 92.3135 174.287 92.6686C169.696 93.1568 165.106 93.5562 160.515 94C159.279 94 158.087 94 156.94 94Z" fill="#DF3663"/>
<path d="M250.914 92.0473C247.118 92.0473 243.542 92.0473 239.79 92.0473C239.79 90.5384 239.79 89.207 239.79 87.9199C235.818 89.1626 232.022 90.6271 228.138 91.5591C221.649 93.1124 215.072 93.4675 208.495 91.8698C202.757 90.494 199.8 87.1211 199.358 81.7511C198.917 76.5586 201.477 72.4756 206.818 70.2122C212.997 67.5938 219.53 67.2387 226.063 67.7713C230.565 68.1707 235.023 69.0583 239.482 69.724C239.746 67.8157 238.775 65.6854 236.303 64.709C233.611 63.6883 230.698 62.9338 227.829 62.7119C220.369 62.2237 213.086 63.777 205.891 65.5523C204.92 65.7742 203.949 65.9961 202.801 66.2623C202.801 63.1113 202.801 60.1822 202.801 56.6318C208.186 55.6111 213.66 54.2353 219.221 53.5696C225.577 52.8151 231.978 52.8595 238.246 54.6347C246.147 56.8537 250.561 62.135 250.87 70.4341C251.134 77.5349 250.914 84.6802 250.914 92.0473ZM224.43 74.5615C220.766 75.1384 217.412 75.4047 214.145 76.2035C211.408 76.8692 210.393 78.5557 210.614 80.7747C210.835 82.8162 212.247 83.9257 215.028 84.2364C223.15 85.0352 230.918 83.5263 238.466 80.5972C239.084 80.3753 239.658 79.2214 239.658 78.5113C239.658 77.9344 238.819 77.0024 238.246 76.8692C233.567 76.026 228.888 75.2715 224.43 74.5615Z" fill="#DF3663"/>
<path d="M119.73 38.3027C115.978 38.3027 112.447 38.3027 108.695 38.3027C108.695 36.3056 108.695 34.3529 108.695 31.8676C107.68 32.5333 107.106 32.8883 106.532 33.2878C98.1894 38.6134 89.0966 40.1223 79.5182 38.3027C71.9703 36.8382 67.3797 31.9563 66.9824 24.1898C66.541 16.2901 66.8942 8.30165 66.8942 0.224432C70.6461 0.224432 74.1773 0.224432 78.0616 0.224432C78.0616 1.11204 78.0616 1.95526 78.0616 2.79849C78.194 8.92297 78.0174 15.0475 78.503 21.0832C78.9002 25.965 81.9018 28.4947 86.7572 29.0272C94.2168 29.8705 100.794 27.6958 106.753 23.2578C108.077 22.2814 108.695 21.0832 108.651 19.3523C108.518 13.6273 108.651 7.85784 108.562 2.13279C108.518 0.490714 109.048 -0.0418494 110.681 0.00253088C113.683 0.135672 116.64 0.0469112 119.73 0.0469112C119.73 12.9172 119.73 25.4768 119.73 38.3027Z" fill="#DF3663"/>
<path d="M66.85 53.9246C70.646 53.9246 74.1331 53.9246 78.0174 53.9246C78.0174 54.7678 78.0174 55.6111 78.0174 56.4543C78.1498 62.5344 77.9733 68.6589 78.4588 74.739C78.856 79.6652 81.681 82.2836 86.5806 82.8162C94.3933 83.6594 101.412 81.4848 107.415 76.381C108.121 75.8041 108.562 74.5171 108.562 73.5407C108.651 67.86 108.606 62.2237 108.606 56.5431C108.606 55.7442 108.606 54.9454 108.606 53.969C112.358 53.969 115.89 53.969 119.641 53.969C119.641 66.573 119.641 79.177 119.641 91.9585C116.066 91.9585 112.491 91.9585 108.695 91.9585C108.695 90.0058 108.695 88.0531 108.695 85.6121C107.635 86.2778 107.017 86.6773 106.355 87.0767C98.1452 92.2692 89.1848 93.7781 79.783 92.0473C71.8819 90.5827 67.4238 85.7897 66.9382 77.7124C66.4968 69.9459 66.85 62.0462 66.85 53.9246Z" fill="#DF3663"/>
<path d="M239.835 0.224449C243.631 0.224449 247.206 0.224449 250.87 0.224449C250.87 12.9172 250.87 25.5212 250.87 38.214C247.25 38.214 243.675 38.214 239.879 38.214C239.879 36.2613 239.879 34.3085 239.879 31.8676C238.864 32.5333 238.201 32.9771 237.583 33.3765C229.329 38.6134 220.325 40.0336 210.791 38.2584C203.552 36.927 198.873 32.4445 198.343 25.0774C197.769 16.9114 198.211 8.61233 198.211 0.224449C201.83 0.224449 205.45 0.224449 209.334 0.224449C209.334 5.46132 209.29 10.6094 209.334 15.7132C209.378 17.7547 209.422 19.8405 209.819 21.8377C210.658 26.0538 213.174 28.4059 217.412 28.9385C225.18 29.9592 232.066 27.7402 238.201 22.9915C239.349 22.1039 239.835 21.1276 239.835 19.6186C239.791 13.2723 239.835 6.88149 239.835 0.224449Z" fill="#DF3663"/>
<path d="M0.375152 0.180054C4.03877 0.180054 7.61411 0.180054 11.4984 0.180054C11.4984 2.84287 11.4543 5.46131 11.4984 8.07975C11.5426 10.5207 11.4984 12.9616 11.8957 15.3137C12.6461 20.1512 15.3828 22.7252 20.2381 23.2134C27.7419 23.9679 34.4954 21.882 40.3218 17.1333C41.2046 16.4232 41.8667 14.9587 41.9109 13.8492C42.0874 9.36678 41.9992 4.88437 41.9992 0.224435C45.7952 0.224435 49.4147 0.224435 53.1224 0.224435C53.1224 12.9172 53.1224 25.4768 53.1224 38.1696C49.4588 38.1696 45.8393 38.1696 42.0433 38.1696C42.0433 34.2197 42.0433 30.3587 42.0433 26.1425C41.1164 26.6751 40.4984 27.0301 39.9246 27.4296C31.6704 32.7552 22.6658 34.2197 13.1316 32.4889C5.45125 31.0687 1.03725 26.4088 0.375152 18.5535C-0.110388 13.1835 0.198592 7.68032 0.198592 2.26593C0.198592 1.60022 0.286872 0.934519 0.375152 0.180054Z" fill="#DF3663"/>
<path d="M0.06621 53.9246C4.03881 53.9246 7.52587 53.9246 11.4543 53.9246C11.4543 54.7678 11.4102 55.6111 11.4543 56.4543C11.5867 60.8479 11.4543 65.286 11.9399 69.6796C12.3813 73.7626 14.9414 76.0704 19.0023 76.7805C27.1682 78.2006 34.363 75.8041 40.675 70.6116C41.3812 70.0347 41.8668 68.7476 41.9109 67.8156C42.0433 63.2889 41.9551 58.7177 41.9551 54.0134C45.707 54.0134 49.2823 54.0134 52.9901 54.0134C52.9901 66.6174 52.9901 79.2658 52.9901 92.0029C49.3706 92.0029 45.8394 92.0029 41.9551 92.0029C41.9551 88.0531 41.9551 84.1032 41.9551 80.5972C37.5852 82.3724 33.436 84.3695 29.1103 85.7453C24.1666 87.2986 18.9581 87.343 13.8379 86.4554C5.40715 84.9908 0.99315 80.1534 0.11035 71.4104C-0.06621 69.6796 0.02207 67.86 0.02207 66.1292C0.06621 62.0906 0.06621 58.1407 0.06621 53.9246Z" fill="#DF3663"/>
<path d="M187.573 38.3471C183.733 38.3471 180.069 38.4359 176.405 38.2584C175.743 38.214 174.905 37.282 174.507 36.5719C170.182 27.9178 165.9 19.1748 161.619 10.4763C161.31 9.85498 160.956 9.23366 160.471 8.34605C159.985 9.27804 159.588 9.94374 159.235 10.6538C154.953 19.3524 150.672 28.0509 146.479 36.7938C145.949 37.9477 145.331 38.4359 144.007 38.3915C140.564 38.3027 137.121 38.3471 133.369 38.3471C133.766 37.4595 134.031 36.7938 134.34 36.1725C140.122 24.7668 145.905 13.361 151.599 1.95529C152.305 0.490741 153.188 -0.0418227 154.821 0.00255763C158.838 0.135699 162.899 -0.0418227 166.915 0.0913182C167.666 0.135699 168.769 0.712642 169.078 1.37835C175.214 13.361 181.217 25.3437 187.264 37.3708C187.396 37.5483 187.44 37.7702 187.573 38.3471Z" fill="#DF3663"/>
</svg>
