<svg width="16" height="16" viewBox="0 0 16 16" fill="none" xmlns="http://www.w3.org/2000/svg">
<path d="M8.00008 12.3233L10.8288 9.4953C11.3881 8.93586 11.769 8.22313 11.9233 7.44723C12.0776 6.67132 11.9983 5.86709 11.6955 5.13622C11.3928 4.40536 10.8801 3.78068 10.2223 3.34119C9.56451 2.90169 8.79118 2.66711 8.00008 2.66711C7.20899 2.66711 6.43566 2.90169 5.77787 3.34119C5.12009 3.78068 4.6074 4.40536 4.30463 5.13622C4.00186 5.86709 3.92261 6.67132 4.07689 7.44723C4.23118 8.22313 4.61207 8.93586 5.17142 9.4953L8.00008 12.3233ZM11.7714 10.438L8.00008 14.2093L4.22875 10.438C3.4829 9.69208 2.97497 8.74177 2.76921 7.70721C2.56344 6.67265 2.66908 5.60031 3.07275 4.62579C3.47643 3.65126 4.16002 2.81833 5.03707 2.23231C5.91413 1.64628 6.94526 1.3335 8.00008 1.3335C9.05491 1.3335 10.086 1.64628 10.9631 2.23231C11.8402 2.81833 12.5237 3.65126 12.9274 4.62579C13.3311 5.60031 13.4367 6.67265 13.231 7.70721C13.0252 8.74177 12.5173 9.69208 11.7714 10.438ZM3.33342 14.6666H12.6668V16H3.33342V14.6666Z" fill="#A6B3C8"/>
</svg>
