<svg width="30" height="30" viewBox="0 0 30 30" fill="none" xmlns="http://www.w3.org/2000/svg">
<path d="M27.5 25.0088C27.4977 25.337 27.3664 25.6512 27.1344 25.8835C26.9023 26.1157 26.5883 26.2474 26.26 26.25H3.74C3.41102 26.2497 3.09562 26.1187 2.86311 25.886C2.6306 25.6533 2.5 25.3377 2.5 25.0088V23.75H25V9.125L15 18.125L2.5 6.875V5C2.5 4.66848 2.6317 4.35054 2.86612 4.11612C3.10054 3.8817 3.41848 3.75 3.75 3.75H26.25C26.5815 3.75 26.8995 3.8817 27.1339 4.11612C27.3683 4.35054 27.5 4.66848 27.5 5V25.0088ZM5.5425 6.25L15 14.7625L24.4575 6.25H5.5425ZM0 18.75H10V21.25H0V18.75ZM0 12.5H6.25V15H0V12.5Z" fill="#16263F"/>
</svg>
