<svg width="30" height="30" viewBox="0 0 30 30" fill="none" xmlns="http://www.w3.org/2000/svg">
<path d="M2.5 5C2.5 4.66848 2.6317 4.35054 2.86612 4.11612C3.10054 3.8817 3.41848 3.75 3.75 3.75H26.25C26.5815 3.75 26.8995 3.8817 27.1339 4.11612C27.3683 4.35054 27.5 4.66848 27.5 5V11.875C26.6712 11.875 25.8763 12.2042 25.2903 12.7903C24.7042 13.3763 24.375 14.1712 24.375 15C24.375 15.8288 24.7042 16.6237 25.2903 17.2097C25.8763 17.7958 26.6712 18.125 27.5 18.125V25C27.5 25.3315 27.3683 25.6495 27.1339 25.8839C26.8995 26.1183 26.5815 26.25 26.25 26.25H3.75C3.41848 26.25 3.10054 26.1183 2.86612 25.8839C2.6317 25.6495 2.5 25.3315 2.5 25V5ZM10.1062 23.75C10.2351 23.3838 10.4744 23.0665 10.7913 22.8421C11.1081 22.6177 11.4868 22.4972 11.875 22.4972C12.2632 22.4972 12.6419 22.6177 12.9587 22.8421C13.2756 23.0665 13.5149 23.3838 13.6438 23.75H25V20.04C24.061 19.5746 23.2707 18.8562 22.7181 17.9657C22.1656 17.0752 21.8728 16.048 21.8728 15C21.8728 13.952 22.1656 12.9248 22.7181 12.0343C23.2707 11.1438 24.061 10.4254 25 9.96V6.25H13.6438C13.5149 6.61624 13.2756 6.93346 12.9587 7.15786C12.6419 7.38227 12.2632 7.50279 11.875 7.50279C11.4868 7.50279 11.1081 7.38227 10.7913 7.15786C10.4744 6.93346 10.2351 6.61624 10.1062 6.25H5V23.75H10.1062ZM11.875 13.75C11.3777 13.75 10.9008 13.5525 10.5492 13.2008C10.1975 12.8492 10 12.3723 10 11.875C10 11.3777 10.1975 10.9008 10.5492 10.5492C10.9008 10.1975 11.3777 10 11.875 10C12.3723 10 12.8492 10.1975 13.2008 10.5492C13.5525 10.9008 13.75 11.3777 13.75 11.875C13.75 12.3723 13.5525 12.8492 13.2008 13.2008C12.8492 13.5525 12.3723 13.75 11.875 13.75ZM11.875 20C11.3777 20 10.9008 19.8025 10.5492 19.4508C10.1975 19.0992 10 18.6223 10 18.125C10 17.6277 10.1975 17.1508 10.5492 16.7992C10.9008 16.4475 11.3777 16.25 11.875 16.25C12.3723 16.25 12.8492 16.4475 13.2008 16.7992C13.5525 17.1508 13.75 17.6277 13.75 18.125C13.75 18.6223 13.5525 19.0992 13.2008 19.4508C12.8492 19.8025 12.3723 20 11.875 20Z" fill="#16263F"/>
</svg>
