<svg width="30" height="30" viewBox="0 0 30 30" fill="none" xmlns="http://www.w3.org/2000/svg">
<path d="M13.75 22.4225C11.2284 22.1016 8.92357 20.8327 7.30399 18.8735C5.68441 16.9143 4.8716 14.4119 5.03078 11.875C5.18996 9.33801 6.30917 6.95686 8.16094 5.21548C10.0127 3.47409 12.4581 2.50315 15 2.5C17.5451 2.49811 19.9951 3.46668 21.8508 5.20835C23.7066 6.95003 24.8285 9.33374 24.9878 11.8738C25.1472 14.4139 24.3321 16.9191 22.7086 18.8791C21.0851 20.8391 18.7753 22.1063 16.25 22.4225V26.25H13.75V22.4225ZM15 20C16.9891 20 18.8968 19.2098 20.3033 17.8033C21.7098 16.3968 22.5 14.4891 22.5 12.5C22.5 10.5109 21.7098 8.60322 20.3033 7.1967C18.8968 5.79018 16.9891 5 15 5C13.0109 5 11.1032 5.79018 9.6967 7.1967C8.29018 8.60322 7.50001 10.5109 7.50001 12.5C7.50001 14.4891 8.29018 16.3968 9.6967 17.8033C11.1032 19.2098 13.0109 20 15 20ZM6.25001 27.5H23.75V30H6.25001V27.5Z" fill="#16263F"/>
</svg>
