<svg width="30" height="30" viewBox="0 0 30 30" fill="none" xmlns="http://www.w3.org/2000/svg">
<path d="M26.4738 15.9925L26.49 16.01L15 27.5L3.51001 16.01L3.52626 15.9925C2.19196 14.4369 1.49481 12.4346 1.57449 10.3867C1.65418 8.33886 2.50481 6.39675 3.95595 4.94957C5.40708 3.50239 7.3515 2.65705 9.39958 2.58295C11.4477 2.50885 13.4481 3.21147 15 4.55C16.5519 3.21147 18.5524 2.50885 20.6004 2.58295C22.6485 2.65705 24.5929 3.50239 26.0441 4.94957C27.4952 6.39675 28.3458 8.33886 28.4255 10.3867C28.5052 12.4346 27.8081 14.4369 26.4738 15.9925ZM5.71876 6.72875C5.19642 7.25108 4.78208 7.87118 4.49939 8.55364C4.2167 9.2361 4.07121 9.96756 4.07121 10.7062C4.07121 11.4449 4.2167 12.1764 4.49939 12.8589C4.78208 13.5413 5.19642 14.1614 5.71876 14.6837L15 23.965L24.2813 14.6837C25.3362 13.6288 25.9288 12.1981 25.9288 10.7062C25.9288 9.2144 25.3362 7.78365 24.2813 6.72875C23.2264 5.67385 21.7956 5.08121 20.3038 5.08121C18.8119 5.08121 17.3812 5.67385 16.3263 6.72875L11.0225 12.0325L9.25501 10.2625L13.2075 6.31C12.1265 5.44667 10.7653 5.01197 9.38403 5.08899C8.00276 5.166 6.6983 5.74934 5.72001 6.7275L5.71876 6.72875Z" fill="#16263F"/>
</svg>
