<svg width="22" height="22" viewBox="0 0 22 22" fill="none" xmlns="http://www.w3.org/2000/svg">
<g clip-path="url(#clip0_1513_4510)">
<path d="M21.8324 9.08359C21.132 4.78672 17.643 1.13867 13.3805 0.262109C12.8777 0.158984 12.3621 0.111719 11.8551 0.034375C11.7992 0.0257812 11.7434 0.0128906 11.6875 0C11.2277 0 10.7723 0 10.3125 0C9.9043 0.0558594 9.4918 0.103125 9.08359 0.171875C4.59336 0.932422 0.919531 4.61914 0.167578 9.10508C0.0988281 9.50469 0.0558594 9.90859 0 10.3125C0 10.7551 0 11.202 0 11.6445C0.0558594 12.0527 0.0988281 12.4652 0.167578 12.8734C0.48125 14.691 1.20742 16.3324 2.35039 17.7805C2.49648 17.9652 2.48359 18.0598 2.31602 18.2145C1.88203 18.6227 1.47812 19.0609 1.04844 19.4691C0.111719 20.35 0.627344 21.7637 1.71016 21.9699C1.72734 21.9742 1.74453 21.9914 1.76172 22.0043C3.23555 22.0043 4.71367 22.0043 6.1875 22.0043C6.23477 21.9914 6.27773 21.9699 6.325 21.9613C7.26602 21.7637 8.00508 20.9516 8.02227 20.002C8.04805 18.6355 8.04375 17.2648 8.02227 15.8984C8.00937 15.0133 7.1543 14.3773 6.29062 14.5621C5.72344 14.6867 5.34531 15.0734 5.07031 15.5418C4.80391 15.9973 5.0832 16.5945 5.59883 16.7148C5.82227 16.7664 6.06719 16.7148 6.30781 16.7062C6.30352 16.6848 6.30781 16.7062 6.30781 16.7277C6.30781 17.7461 6.30781 18.7602 6.30781 19.7785C6.30781 20.1352 6.15312 20.2855 5.79648 20.2855C4.82109 20.2855 3.85 20.2855 2.87461 20.2855C2.82305 20.2855 2.77148 20.277 2.69844 20.2684C2.99492 19.9676 3.26992 19.6883 3.54492 19.409C4.36133 18.5926 4.41289 17.6773 3.7168 16.7578C1.91211 14.3816 1.31484 11.7305 1.98516 8.81719C2.89609 4.85977 6.53125 1.87344 10.5832 1.72734C12.8648 1.6457 14.9445 2.26445 16.7148 3.7125C19.568 6.0457 20.7066 9.0707 20.1094 12.7188C19.9074 13.9648 19.3961 15.0949 18.7086 16.152C18.4379 16.5688 18.5496 17.0844 18.9406 17.3465C19.3402 17.6129 19.8602 17.5141 20.1309 17.1059C20.9859 15.8297 21.5574 14.4332 21.8195 12.9207C21.8926 12.4996 21.9355 12.0742 21.9914 11.6488C21.9914 11.2063 21.9914 10.7594 21.9914 10.3168C21.9441 9.9043 21.8969 9.4918 21.8324 9.08359Z" fill="#16263F"/>
<path d="M16.414 18.8376C16.1691 18.786 15.9586 18.8719 15.7394 18.9751C15.0949 19.2801 14.4547 19.6024 13.7844 19.843C12.8906 20.1653 11.9496 20.277 11 20.2813C10.566 20.2856 10.2308 20.5778 10.1535 20.9903C10.0805 21.3899 10.3125 21.7895 10.7121 21.9485C10.7508 21.9657 10.7894 21.9829 10.8281 22.0001C11.116 22.0001 11.3996 22.0001 11.6875 22.0001C11.7433 21.9872 11.7949 21.9743 11.8508 21.9614C12.4781 21.8583 13.114 21.7895 13.7285 21.6477C14.7726 21.4071 15.748 20.9817 16.6676 20.4231C16.9941 20.2255 17.1531 19.8817 17.093 19.5294C17.0328 19.1856 16.7707 18.9149 16.414 18.8376Z" fill="#16263F"/>
<path d="M11.2965 12.6973C11.3781 12.6844 11.4941 12.7231 11.5543 12.7789C11.8035 13.0066 12.0356 13.2516 12.2719 13.4879C12.7531 13.9691 13.2258 14.4547 13.7156 14.9274C14.1926 15.3871 14.9488 15.2066 15.1422 14.5965C15.2539 14.2441 15.1551 13.9391 14.893 13.677C14.1883 12.9766 13.4836 12.2719 12.7875 11.5629C12.7273 11.4984 12.6887 11.3738 12.6973 11.2879C12.7832 10.6047 12.5684 10.0461 12.0184 9.6293C11.8938 9.53477 11.8508 9.44454 11.8551 9.29415C11.8637 8.46915 11.8594 7.64845 11.8594 6.82345C11.8594 5.99415 11.8594 5.16055 11.8594 4.33126C11.8594 3.92735 11.6359 3.60938 11.2836 3.48907C10.7121 3.29141 10.1449 3.70821 10.1449 4.33985C10.1406 6.00274 10.1406 7.66134 10.1449 9.32423C10.1449 9.46173 10.1063 9.53907 9.99454 9.62071C9.34141 10.0934 9.10938 10.927 9.41446 11.666C9.71954 12.4008 10.493 12.8176 11.2965 12.6973Z" fill="#16263F"/>
</g>
<defs>
<clipPath id="clip0_1513_4510">
<rect width="22" height="22" fill="white"/>
</clipPath>
</defs>
</svg>
