<svg width="19" height="22" viewBox="0 0 19 22" fill="none" xmlns="http://www.w3.org/2000/svg">
<g clip-path="url(#clip0_1513_4540)">
<path d="M9.09119 0C9.15221 0.0287056 9.20712 0.0574113 9.26814 0.0861169C9.65253 0.258351 9.86608 0.528184 9.87218 0.941545C9.87218 1.98069 9.9576 3.01409 10.281 4.01879C10.4762 4.61587 10.8118 5.24739 11.0681 5.49426C11.5379 4.97756 11.9955 4.45511 12.4714 3.9499C12.746 3.66284 13.0389 3.39301 13.3378 3.12317C13.6612 2.83612 14.0395 2.75 14.4544 2.92223C14.851 3.08299 15.0279 3.38152 15.034 3.78914C15.0401 4.29436 15.2049 4.76514 15.4855 5.18998C15.8699 5.77557 16.2726 6.34969 16.6875 6.91232C17.4014 7.87683 18.0604 8.87004 18.4753 9.98956C19.1464 11.821 19.1647 13.6639 18.6034 15.524C18.457 16.0063 17.9749 16.2589 17.4868 16.1268C16.9926 15.9948 16.7119 15.5527 16.8523 15.0705C17.2916 13.595 17.2794 12.131 16.7669 10.6728C16.4313 9.72547 15.9004 8.88152 15.3086 8.06054C14.8327 7.40605 14.369 6.74008 13.9114 6.07411C13.771 5.87317 13.6795 5.64353 13.5514 5.40814C13.5087 5.44833 13.4599 5.47704 13.4293 5.51722C12.9412 6.1143 12.4409 6.6999 11.9772 7.30845C11.544 7.87109 10.946 7.93424 10.4152 7.44624C9.17661 6.29802 8.50545 4.8857 8.22478 3.28967C8.17597 3.00835 8.13936 2.72704 8.09665 2.40553C7.99293 2.48591 7.91361 2.54906 7.83429 2.61221C5.91843 4.16232 4.28933 5.93633 3.14836 8.07203C2.26974 9.70251 1.79383 11.4306 1.83044 13.2735C1.89145 16.3392 4.21001 19.1811 7.35838 19.9849C10.0186 20.6681 12.4287 20.203 14.552 18.5151C14.9974 18.1592 15.5466 18.1764 15.8943 18.5553C16.2482 18.94 16.1811 19.4624 15.7296 19.8241C13.8076 21.3914 11.5623 22.0861 9.03628 21.9828C4.59441 21.7991 0.835896 18.6414 0.128125 14.5308C-0.231863 12.4525 0.128125 10.4546 0.927418 8.51409C1.84874 6.31524 3.27649 4.42641 5.00931 2.73852C5.96114 1.81994 6.98008 0.964509 8.11496 0.246868C8.2736 0.143528 8.46274 0.0803758 8.63969 0C8.78612 0 8.93866 0 9.09119 0Z" fill="#16263F"/>
<path d="M6.47367 17.6195C6.11368 17.5966 5.82691 17.4473 5.66828 17.1258C5.50354 16.7985 5.55235 16.4828 5.79641 16.2015C6.27842 15.6446 6.76044 15.0992 7.24856 14.5423C8.75562 12.8199 10.2688 11.0976 11.7759 9.37527C12.0687 9.04228 12.4653 8.9332 12.8558 9.07673C13.2219 9.20878 13.4721 9.55898 13.4233 9.92068C13.3988 10.1044 13.3195 10.3053 13.1975 10.4431C11.2145 12.7223 9.21323 14.9958 7.22415 17.2693C7.0289 17.499 6.78485 17.6138 6.47367 17.6195Z" fill="#16263F"/>
<path d="M5.11914 10.2824C5.13134 9.58196 5.75369 9.01359 6.51027 9.02507C7.26686 9.03081 7.8709 9.62789 7.8587 10.3455C7.8465 11.046 7.21804 11.6143 6.46756 11.6028C5.71098 11.5914 5.10694 11 5.11914 10.2824Z" fill="#16263F"/>
<path d="M12.5141 17.6195C11.7575 17.6195 11.1413 17.0339 11.1474 16.322C11.1535 15.6159 11.7636 15.0417 12.5141 15.0417C13.2707 15.0417 13.887 15.6273 13.8809 16.3392C13.8809 17.0454 13.2646 17.6195 12.5141 17.6195Z" fill="#16263F"/>
</g>
<defs>
<clipPath id="clip0_1513_4540">
<rect width="19" height="22" fill="white"/>
</clipPath>
</defs>
</svg>
