<svg width="22" height="19" viewBox="0 0 22 19" fill="none" xmlns="http://www.w3.org/2000/svg">
<path d="M20.926 1.69129C16.7717 1.69979 12.6218 1.69554 8.46749 1.69554C8.21832 1.69554 7.96485 1.69129 7.71568 1.69554C7.26889 1.70829 6.90803 2.04834 6.87795 2.48191C6.84788 2.91972 7.1486 3.30653 7.5868 3.38304C7.68561 3.40004 7.78442 3.39579 7.88752 3.39579C12.2351 3.39579 16.5784 3.39154 20.926 3.40004C21.4587 3.40004 21.8239 3.22151 22 2.71569C22 2.60092 22 2.49041 22 2.37564C21.8239 1.86557 21.4544 1.69129 20.926 1.69129Z" fill="#16263F"/>
<path d="M20.926 8.49229C16.7717 8.50079 12.6218 8.49654 8.46749 8.49654C8.21832 8.49654 7.96485 8.49229 7.71568 8.49654C7.26889 8.50929 6.90803 8.84934 6.87795 9.28291C6.84788 9.72072 7.1486 10.1075 7.5868 10.184C7.68561 10.201 7.78442 10.1968 7.88752 10.1968C12.2351 10.1968 16.5784 10.1925 20.926 10.201C21.4587 10.201 21.8239 10.0225 22 9.51669C22 9.40193 22 9.29141 22 9.17664C21.8239 8.67082 21.4544 8.49229 20.926 8.49229Z" fill="#16263F"/>
<path d="M20.926 15.5908C16.7717 15.5993 12.6218 15.5951 8.46749 15.5951C8.21832 15.5951 7.96485 15.5908 7.71568 15.5951C7.26889 15.6078 6.90803 15.9479 6.87795 16.3814C6.84788 16.8193 7.1486 17.2061 7.5868 17.2826C7.68561 17.2996 7.78442 17.2953 7.88752 17.2953C12.2351 17.2953 16.5784 17.2911 20.926 17.2996C21.4587 17.2996 21.8239 17.1211 22 16.6152C22 16.5005 22 16.3899 22 16.2752C21.8239 15.7694 21.4544 15.5908 20.926 15.5908Z" fill="#16263F"/>
<path d="M3.39816 0.13149C2.36282 -0.212811 1.21148 0.13574 0.545596 0.981614C0.257762 1.34717 0.111697 1.76798 0 2.21004C0 2.43533 0 2.66486 0 2.89014C0.0128881 2.9369 0.0343683 2.97941 0.0429604 3.02616C0.287834 4.21209 1.32318 5.08347 2.50888 5.10047C3.02441 5.10897 3.41105 4.76892 3.43253 4.29285C3.45401 3.80403 3.09315 3.42997 2.57333 3.40022C2.07499 3.37472 1.71412 3.01341 1.71841 2.54584C1.72271 2.08253 2.10076 1.70422 2.56473 1.69997C3.04159 1.69572 3.40676 2.04852 3.43683 2.54159C3.4669 3.06017 3.84066 3.41722 4.3347 3.40022C4.81586 3.38322 5.16384 2.99641 5.15524 2.49059C5.14235 1.44068 4.41632 0.463038 3.39816 0.13149Z" fill="#16263F"/>
<path d="M3.39816 6.93231C2.36282 6.59226 1.21148 6.94081 0.545596 7.78243C0.257762 8.14799 0.111697 8.5688 0 9.01086C0 9.23615 0 9.46568 0 9.69096C0.0128881 9.73772 0.0343683 9.78022 0.0429604 9.82698C0.287834 11.0129 1.32318 11.8843 2.50888 11.9013C3.02441 11.9098 3.41105 11.5697 3.43253 11.0937C3.45401 10.6048 3.09315 10.2308 2.57333 10.201C2.07499 10.1755 1.71412 9.81423 1.71841 9.34666C1.72271 8.88759 2.10076 8.50929 2.56473 8.50504C3.04159 8.50079 3.40676 8.85359 3.43683 9.34666C3.4669 9.86524 3.84066 10.2223 4.3347 10.2053C4.81586 10.1883 5.16384 9.80148 5.15524 9.29565C5.14235 8.24575 4.41632 7.26811 3.39816 6.93231Z" fill="#16263F"/>
<path d="M3.39816 14.0309C2.36282 13.6908 1.21148 14.0394 0.545596 14.881C0.257762 15.2465 0.111697 15.6674 0 16.1094C0 16.3347 0 16.5642 0 16.7895C0.0128881 16.8363 0.0343683 16.8788 0.0429604 16.9255C0.287834 18.1115 1.32318 18.9828 2.50888 18.9998C3.02441 19.0083 3.41105 18.6683 3.43253 18.1922C3.45401 17.7034 3.09315 17.3293 2.57333 17.2996C2.07499 17.2741 1.71412 16.9128 1.71841 16.4452C1.72271 15.9862 2.10076 15.6078 2.56473 15.6036C3.04159 15.5993 3.40676 15.9521 3.43683 16.4452C3.4669 16.9638 3.84066 17.3208 4.3347 17.3038C4.81586 17.2868 5.16384 16.9 5.15524 16.3942C5.14235 15.3443 4.41632 14.3667 3.39816 14.0309Z" fill="#16263F"/>
</svg>
