<svg width="22" height="22" viewBox="0 0 22 22" fill="none" xmlns="http://www.w3.org/2000/svg">
<path d="M0.00537978 10.5491C0.172153 10.319 0.312027 10.0666 0.505699 9.8702C3.38926 6.85177 6.2782 3.85018 9.16714 0.842976C10.2485 -0.284725 11.8463 -0.279115 12.9222 0.848586C15.8273 3.90067 18.7324 6.95276 21.6428 9.99924C21.8903 10.2573 22.0571 10.5378 21.9818 10.9137C21.8473 11.5982 21.078 11.8731 20.5776 11.4075C20.3409 11.183 20.1365 10.925 19.9159 10.6837C19.8944 10.6949 19.8729 10.7062 19.8514 10.7174C19.8514 10.7959 19.8514 10.8745 19.8514 10.953C19.8514 11.9405 19.8568 12.9223 19.8514 13.9097C19.8514 14.3305 19.62 14.6559 19.2596 14.7737C18.9153 14.8916 18.5172 14.785 18.3235 14.4652C18.2159 14.28 18.146 14.0388 18.1406 13.82C18.1245 12.2434 18.1298 10.6669 18.1352 9.09595C18.1352 8.93325 18.0976 8.82104 17.9846 8.70322C15.9026 6.52637 13.826 4.3439 11.7441 2.16143C11.2653 1.6621 10.8134 1.6621 10.3292 2.16143C8.22568 4.34951 6.12219 6.53759 4.01869 8.72567C3.91648 8.83226 3.86268 8.93886 3.86268 9.09595C3.86806 12.1649 3.86268 15.2338 3.86806 18.3027C3.86806 19.2453 4.35762 19.9241 5.19686 20.1542C5.29908 20.1822 5.40668 20.1934 5.51427 20.1934C6.20826 20.199 6.90225 20.2047 7.59624 20.2047C7.6608 20.2047 7.72536 20.2047 7.8222 20.2047C7.8222 20.1037 7.8222 20.0195 7.8222 19.9297C7.8222 17.6351 7.8222 15.346 7.8222 13.0513C7.8222 12.35 8.15036 12.0022 8.82283 12.0022C10.3023 12.0022 11.7871 12.0022 13.2665 12.0022C13.939 12.0022 14.2672 12.35 14.2672 13.0513C14.2672 15.3348 14.2672 17.6182 14.2672 19.9073C14.2672 19.9971 14.2672 20.0812 14.2672 20.171C14.3048 20.1822 14.321 20.199 14.3425 20.199C15.0957 20.1934 15.8434 20.2103 16.5966 20.1766C17.3336 20.1429 17.9846 19.4865 18.1029 18.7235C18.1191 18.6001 18.1298 18.471 18.1406 18.3476C18.189 17.8595 18.5656 17.506 19.0229 17.5229C19.4855 17.5397 19.8406 17.9156 19.8514 18.4037C19.8998 20.0588 18.6248 21.669 17.0485 21.9271C16.7957 21.9663 16.5374 21.9888 16.2792 21.9944C15.37 22 14.4608 22 13.5517 21.9944C12.8792 21.9944 12.5456 21.6465 12.5456 20.9508C12.5456 18.6674 12.5456 16.3839 12.5456 14.0949C12.5456 14.0051 12.5456 13.9153 12.5456 13.8143C11.5396 13.8143 10.5497 13.8143 9.53834 13.8143C9.53834 13.9097 9.53834 13.9939 9.53834 14.0836C9.53834 16.3671 9.53834 18.6506 9.53834 20.9396C9.53834 21.6578 9.21556 22 8.52695 21.9944C7.48327 21.9944 6.43421 22.0168 5.39054 21.9719C3.63673 21.9046 2.20033 20.3842 2.15729 18.5496C2.12501 17.1862 2.14653 15.8173 2.14653 14.4539C2.14653 13.214 2.14653 11.9741 2.14653 10.6781C1.90444 10.9306 1.69463 11.1494 1.48482 11.3626C1.21045 11.6431 0.893043 11.7104 0.537978 11.5814C0.252849 11.4748 0.112975 11.2223 0 10.9586C0.00537978 10.8184 0.00537978 10.6837 0.00537978 10.5491Z" fill="#DF3663"/>
</svg>
