<svg width="22" height="22" viewBox="0 0 22 22" fill="none" xmlns="http://www.w3.org/2000/svg">
<g clip-path="url(#clip0_1513_4523)">
<path d="M0.683443 22C0.624246 21.9731 0.565048 21.9517 0.511232 21.9248C-2.0684e-05 21.6938 -0.161469 21.0708 0.177572 20.625C0.242152 20.5391 0.317494 20.4639 0.392837 20.3887C2.20106 18.5947 4.00928 16.7954 5.81749 15.0015C5.88207 14.937 5.95742 14.8779 6.04352 14.8081C5.93051 14.6577 5.83902 14.5342 5.74753 14.4106C4.80575 13.1484 4.22992 11.7305 4.0308 10.1675C3.78863 8.26074 4.11153 6.45605 5.02102 4.76953C5.91975 3.09912 7.22747 1.82617 8.92806 0.966797C9.97209 0.435059 11.0807 0.123535 12.2485 0.0322266C12.2916 0.0268555 12.3292 0.0107422 12.3669 0C12.7705 0 13.1688 0 13.5724 0C13.6316 0.0107422 13.6962 0.0268555 13.7554 0.0375977C14.1159 0.0913086 14.4819 0.123535 14.8371 0.19873C16.796 0.623047 18.4374 1.59521 19.7559 3.09912C20.8268 4.31836 21.521 5.72559 21.8224 7.3208C21.8923 7.68604 21.9354 8.05127 21.9892 8.4165C21.9892 8.81934 21.9892 9.2168 21.9892 9.61963C21.9408 9.95801 21.8977 10.2964 21.8385 10.6348C21.6663 11.5908 21.3434 12.4985 20.8806 13.3525C20.6008 13.8628 20.1218 14.0508 19.6697 13.8198C19.2877 13.6211 19.0401 13.1108 19.3522 12.563C19.8043 11.7627 20.0895 10.9033 20.2025 9.99561C20.407 8.38428 20.1218 6.85889 19.3253 5.44092C18.5235 4.02295 17.3718 2.98096 15.8811 2.33105C14.5734 1.75635 13.1957 1.56836 11.7857 1.82617C9.18638 2.29346 7.33511 3.75977 6.2534 6.16602C5.67219 7.45508 5.51612 8.82471 5.76906 10.2212C6.24264 12.8154 7.69567 14.6792 10.1013 15.7319C12.1624 16.6343 14.2397 16.5322 16.2632 15.5439C16.4462 15.4526 16.6345 15.3452 16.8336 15.3076C17.248 15.2324 17.6355 15.4795 17.7647 15.8608C17.9046 16.2637 17.7539 16.7041 17.3503 16.9028C16.8175 17.1606 16.2793 17.4292 15.7196 17.6064C13.5078 18.3101 11.3229 18.1865 9.21329 17.2197C8.58902 16.9351 8.02395 16.5107 7.43736 16.1509C7.37278 16.1079 7.31358 16.0596 7.23824 16.0112C7.17366 16.0703 7.11446 16.124 7.06065 16.1777C5.25243 17.9717 3.44421 19.771 1.63061 21.5649C1.45301 21.7422 1.2216 21.8604 1.01172 22.0054C0.914852 22 0.801839 22 0.683443 22Z" fill="#16263F"/>
</g>
<defs>
<clipPath id="clip0_1513_4523">
<rect width="22" height="22" fill="white"/>
</clipPath>
</defs>
</svg>
