<svg width="10" height="12" viewBox="0 0 10 12" fill="none" xmlns="http://www.w3.org/2000/svg">
<path d="M1.60714 10.0457H0V8.81143H1.60714V7.37143H0V5.96571H1.60714V0H5.53571C6.27381 0 6.91667 0.0914287 7.46428 0.274286C8.02381 0.457143 8.48809 0.714286 8.85714 1.04571C9.23809 1.36571 9.52381 1.75429 9.71428 2.21143C9.90476 2.65714 10 3.14857 10 3.68571C10 4.22286 9.90476 4.72 9.71428 5.17714C9.52381 5.62286 9.23809 6.01143 8.85714 6.34286C8.48809 6.66286 8.02381 6.91429 7.46428 7.09714C6.91667 7.28 6.27381 7.37143 5.53571 7.37143H3.28571V8.81143H7.5V10.0457H3.28571V12H1.60714V10.0457ZM5.44643 5.96571C6.47024 5.96571 7.20238 5.76 7.64286 5.34857C8.09524 4.93714 8.32143 4.38286 8.32143 3.68571C8.32143 2.98857 8.09524 2.43429 7.64286 2.02286C7.20238 1.61143 6.47024 1.40571 5.44643 1.40571H3.28571V5.96571H5.44643Z" fill="#A6B3C8"/>
</svg>
