<svg width="16" height="16" viewBox="0 0 16 16" fill="none" xmlns="http://www.w3.org/2000/svg">
<path d="M7.99992 5.99992C7.46949 5.99992 6.96078 6.21063 6.5857 6.5857C6.21063 6.96078 5.99992 7.46949 5.99992 7.99992C5.99992 8.53035 6.21063 9.03906 6.5857 9.41413C6.96078 9.78921 7.46949 9.99992 7.99992 9.99992C8.53035 9.99992 9.03906 9.78921 9.41413 9.41413C9.78921 9.03906 9.99992 8.53035 9.99992 7.99992C9.99992 7.46949 9.78921 6.96078 9.41413 6.5857C9.03906 6.21063 8.53035 5.99992 7.99992 5.99992ZM7.99992 4.66659C8.88397 4.66659 9.73182 5.01777 10.3569 5.6429C10.9821 6.26802 11.3333 7.11586 11.3333 7.99992C11.3333 8.88397 10.9821 9.73182 10.3569 10.3569C9.73182 10.9821 8.88397 11.3333 7.99992 11.3333C7.11586 11.3333 6.26802 10.9821 5.6429 10.3569C5.01777 9.73182 4.66659 8.88397 4.66659 7.99992C4.66659 7.11586 5.01777 6.26802 5.6429 5.6429C6.26802 5.01777 7.11586 4.66659 7.99992 4.66659V4.66659ZM12.3333 4.49992C12.3333 4.72093 12.2455 4.93289 12.0892 5.08917C11.9329 5.24545 11.7209 5.33325 11.4999 5.33325C11.2789 5.33325 11.0669 5.24545 10.9107 5.08917C10.7544 4.93289 10.6666 4.72093 10.6666 4.49992C10.6666 4.2789 10.7544 4.06694 10.9107 3.91066C11.0669 3.75438 11.2789 3.66659 11.4999 3.66659C11.7209 3.66659 11.9329 3.75438 12.0892 3.91066C12.2455 4.06694 12.3333 4.2789 12.3333 4.49992V4.49992ZM7.99992 2.66659C6.35059 2.66659 6.08125 2.67125 5.31392 2.70525C4.79125 2.72992 4.44059 2.79992 4.11525 2.92659C3.82592 3.03859 3.61725 3.17259 3.39525 3.39525C3.18659 3.59685 3.02615 3.84297 2.92592 4.11525C2.79925 4.44192 2.72925 4.79192 2.70525 5.31392C2.67059 6.04992 2.66659 6.30725 2.66659 7.99992C2.66659 9.64925 2.67125 9.91859 2.70525 10.6859C2.72992 11.2079 2.79992 11.5593 2.92592 11.8839C3.03925 12.1739 3.17259 12.3826 3.39392 12.6039C3.61859 12.8279 3.82725 12.9619 4.11392 13.0726C4.44325 13.1999 4.79392 13.2706 5.31392 13.2946C6.04992 13.3293 6.30725 13.3333 7.99992 13.3333C9.64925 13.3333 9.91859 13.3286 10.6859 13.2946C11.2073 13.2699 11.5586 13.1999 11.8839 13.0739C12.1726 12.9613 12.3826 12.8273 12.6039 12.6059C12.8286 12.3813 12.9626 12.1726 13.0733 11.8859C13.1999 11.5573 13.2706 11.2059 13.2946 10.6859C13.3293 9.94992 13.3333 9.69259 13.3333 7.99992C13.3333 6.35059 13.3286 6.08125 13.2946 5.31392C13.2699 4.79259 13.1999 4.44059 13.0733 4.11525C12.9728 3.84325 12.8126 3.59723 12.6046 3.39525C12.4031 3.18648 12.1569 3.02603 11.8846 2.92592C11.5579 2.79925 11.2073 2.72925 10.6859 2.70525C9.94992 2.67059 9.69259 2.66659 7.99992 2.66659ZM7.99992 1.33325C9.81125 1.33325 10.0373 1.33992 10.7479 1.37325C11.4579 1.40659 11.9413 1.51792 12.3666 1.68325C12.8066 1.85259 13.1773 2.08192 13.5479 2.45192C13.8869 2.78518 14.1492 3.18831 14.3166 3.63325C14.4813 4.05792 14.5933 4.54192 14.6266 5.25192C14.6579 5.96259 14.6666 6.18859 14.6666 7.99992C14.6666 9.81125 14.6599 10.0373 14.6266 10.7479C14.5933 11.4579 14.4813 11.9413 14.3166 12.3666C14.1497 12.8118 13.8873 13.215 13.5479 13.5479C13.2146 13.8868 12.8115 14.1491 12.3666 14.3166C11.9419 14.4813 11.4579 14.5933 10.7479 14.6266C10.0373 14.6579 9.81125 14.6666 7.99992 14.6666C6.18859 14.6666 5.96259 14.6599 5.25192 14.6266C4.54192 14.5933 4.05859 14.4813 3.63325 14.3166C3.18814 14.1496 2.78494 13.8872 2.45192 13.5479C2.11286 13.2147 1.85054 12.8116 1.68325 12.3666C1.51792 11.9419 1.40659 11.4579 1.37325 10.7479C1.34192 10.0373 1.33325 9.81125 1.33325 7.99992C1.33325 6.18859 1.33992 5.96259 1.37325 5.25192C1.40659 4.54125 1.51792 4.05859 1.68325 3.63325C1.85008 3.18804 2.11245 2.7848 2.45192 2.45192C2.78503 2.11274 3.1882 1.8504 3.63325 1.68325C4.05859 1.51792 4.54125 1.40659 5.25192 1.37325C5.96259 1.34192 6.18859 1.33325 7.99992 1.33325Z" fill="#A6B3C8"/>
</svg>
