<svg width="17" height="16" viewBox="0 0 17 16" fill="none" xmlns="http://www.w3.org/2000/svg">
<path d="M4.75467 3.97863C5.81716 3.12734 7.13854 2.66446 8.5 2.66663C9.91667 2.66663 11.2187 3.15729 12.2453 3.97863L13.214 3.00996L14.1567 3.95263L13.188 4.92129C13.8931 5.80406 14.3347 6.86798 14.4619 7.99062C14.589 9.11326 14.3967 10.249 13.9069 11.2671C13.4171 12.2852 12.6497 13.1444 11.6932 13.7457C10.7367 14.347 9.62982 14.666 8.5 14.666C7.37018 14.666 6.26332 14.347 5.3068 13.7457C4.35027 13.1444 3.58296 12.2852 3.09315 11.2671C2.60335 10.249 2.41096 9.11326 2.53813 7.99062C2.66531 6.86798 3.10687 5.80406 3.812 4.92129L2.84334 3.95329L3.786 3.01063L4.75467 3.97929V3.97863ZM8.5 13.3333C9.11284 13.3333 9.71967 13.2126 10.2859 12.9781C10.852 12.7435 11.3665 12.3998 11.7998 11.9665C12.2332 11.5331 12.5769 11.0187 12.8114 10.4525C13.046 9.8863 13.1667 9.27946 13.1667 8.66663C13.1667 8.05379 13.046 7.44696 12.8114 6.88077C12.5769 6.31458 12.2332 5.80013 11.7998 5.36679C11.3665 4.93345 10.852 4.58971 10.2859 4.35519C9.71967 4.12067 9.11284 3.99996 8.5 3.99996C7.26233 3.99996 6.07534 4.49162 5.20017 5.36679C4.325 6.24196 3.83334 7.42895 3.83334 8.66663C3.83334 9.9043 4.325 11.0913 5.20017 11.9665C6.07534 12.8416 7.26233 13.3333 8.5 13.3333ZM9.16667 7.99996H11.1667L7.83334 12.3333V9.33329H5.83334L9.16667 4.99663V7.99996ZM5.83334 0.666626H11.1667V1.99996H5.83334V0.666626Z" fill="#A6B3C8"/>
</svg>
