<svg width="40" height="27" viewBox="0 0 40 27" fill="none" xmlns="http://www.w3.org/2000/svg">
<path d="M0 2.44827C0.223464 1.51559 0.670391 0.81609 1.45251 0.349753C1.89944 0.116584 2.34637 0 2.90503 0C10.838 0 18.6592 0 26.5922 0C27.7095 0 28.6034 0.466337 29.162 1.51559C30.5028 3.84728 31.8436 7.64793 33.2961 9.97961C33.4078 10.2128 33.6313 10.3294 33.8547 10.3294C36.8715 10.6791 39.6648 13.4771 39.8883 16.6249C40 19.3763 40 20.5421 40 21.708C40 23.2236 38.771 24.3894 37.3184 24.3894C36.8715 24.3894 36.648 24.506 36.4246 24.9723C34.7486 27.7704 30.838 27.6538 29.2737 24.7392C29.162 24.506 28.9386 24.3894 28.7151 24.3894C23.0168 24.3894 17.3184 24.3894 11.6201 24.3894C11.3966 24.3894 11.1732 24.506 11.0615 24.7392C10.2793 26.1382 9.05028 26.9543 7.3743 26.9543C5.81006 26.9543 4.58101 26.1382 3.68715 24.7392C3.57542 24.3894 3.35196 24.3894 3.01676 24.3894C1.78771 24.3894 0.893855 23.9231 0.335196 22.7572C0.223464 22.5241 0.111732 22.2909 0.111732 22.0577C0 16.5783 0 7.92773 0 2.44827ZM23.2402 12.1947C25.9218 12.1947 28.6034 12.1947 31.2849 12.1947C31.2849 12.0781 31.2849 12.0781 31.2849 11.9615C29.8324 9.51327 28.3799 5.47946 26.8156 3.03119C26.7039 2.91461 26.5922 2.79802 26.3687 2.79802C25.5866 2.79802 24.8045 2.79802 23.9106 2.79802C23.6872 2.79802 23.352 2.79802 23.1285 2.79802C23.2402 5.47946 23.2402 9.62986 23.2402 12.1947ZM7.26257 20.7753C6.25698 20.7753 5.47486 21.5914 5.47486 22.5241C5.47486 23.5733 6.25698 24.3894 7.26257 24.3894C8.15643 24.3894 9.05028 23.5733 9.05028 22.5241C8.93855 21.5914 8.15643 20.7753 7.26257 20.7753ZM32.7374 20.7753C31.7318 20.7753 30.9497 21.5914 30.9497 22.5241C30.9497 23.5733 31.7318 24.3894 32.7374 24.3894C33.6313 24.3894 34.5251 23.5733 34.5251 22.5241C34.5251 21.5914 33.743 20.7753 32.7374 20.7753Z" fill="#A6B3C8"/>
</svg>
