<svg width="18" height="23" viewBox="0 0 18 23" fill="none" xmlns="http://www.w3.org/2000/svg">
<path d="M7.96696 11.4883C8.33764 11.0545 9.0082 11.0545 9.37887 11.4883L14.875 17.9204C15.3899 18.5231 14.9617 19.4522 14.169 19.4522H3.17679C2.38413 19.4522 1.95591 18.5231 2.47083 17.9204L7.96696 11.4883Z" fill="#1D634A"/>
<path d="M7.96696 6.33106C8.33764 5.89726 9.0082 5.89726 9.37887 6.33106L14.875 12.7632C15.3899 13.3658 14.9617 14.295 14.169 14.295L3.17679 14.295C2.38413 14.295 1.95591 13.3658 2.47083 12.7632L7.96696 6.33106Z" fill="#278362"/>
<path d="M7.96721 1.17384C8.33788 0.740036 9.00844 0.740036 9.37911 1.17384L14.8752 7.60598C15.3902 8.20861 14.9619 9.13778 14.1693 9.13778L3.17703 9.13778C2.38437 9.13778 1.95615 8.20861 2.47108 7.60598L7.96721 1.17384Z" fill="#3EA47F"/>
</svg>
